<svg width="81" height="20" viewBox="0 0 81 20" fill="none" xmlns="http://www.w3.org/2000/svg">
<path d="M11.5425 11.893V7.92867C11.5425 7.38536 11.4396 6.87428 11.2338 6.39543C11.037 5.90737 10.7641 5.48377 10.4151 5.12463C10.0661 4.76549 9.65455 4.48463 9.18032 4.28203C8.71504 4.07024 8.21845 3.96434 7.69054 3.96434C7.16262 3.96434 6.66155 4.07024 6.18732 4.28203C5.72204 4.48463 5.31493 4.76549 4.96597 5.12463C4.61701 5.48377 4.33963 5.90737 4.13383 6.39543C3.93698 6.87428 3.83856 7.38536 3.83856 7.92867V11.893H11.5425ZM15.3945 19.8079H13.1412C12.2583 19.8079 11.5425 19.0688 11.5425 18.1572V15.8435H3.83856V18.1572C3.83856 19.0688 3.12279 19.8079 2.23985 19.8079H0V7.92867C0 6.83284 0.201323 5.80607 0.603969 4.84837C1.00661 3.88146 1.55242 3.03886 2.2414 2.32059C2.93931 1.60231 3.75355 1.03598 4.68411 0.621586C5.62362 0.207195 6.62576 1.56569e-07 7.69054 1.56569e-07C8.75531 1.56569e-07 9.75298 0.207195 10.6835 0.621586C11.623 1.03598 12.4418 1.60231 13.1397 2.32059C13.8376 3.03886 14.3879 3.88146 14.7905 4.84837C15.1932 5.80607 15.3945 6.83284 15.3945 7.92867V19.8079Z" fill="#2E6DF3"/>
<path d="M22.5884 19.8079H18.7365V1.56569e-07H20.9897C21.8727 1.56569e-07 22.5884 0.739024 22.5884 1.65066V19.8079Z" fill="#2E6DF3"/>
<path d="M41.5665 19.8079H39.2757C38.1422 19.8079 37.0934 19.1882 36.519 18.1792L30.024 6.76838V19.8079H26.172V1.56569e-07H28.4618C29.5958 1.56569e-07 30.645 0.6202 31.2192 1.62994L37.7145 13.0533V1.56569e-07H41.5665V19.8079Z" fill="#2E6DF3"/>
<path d="M56.4311 7.91486V11.8792C56.4311 12.4225 56.3285 12.9336 56.1234 13.4124C55.9271 13.9005 55.6551 14.3241 55.3072 14.6832C54.9593 15.0424 54.5489 15.3232 54.0761 15.5258C53.6123 15.7376 53.1172 15.8435 52.5909 15.8435C52.0646 15.8435 51.565 15.7376 51.0923 15.5258C50.6284 15.3232 50.2225 15.0424 49.8746 14.6832C49.5267 14.3241 49.2502 13.9005 49.045 13.4124C48.8488 12.9336 48.7506 12.4225 48.7506 11.8792V7.91486H56.4311ZM60.2714 0H58.0298C57.1469 0 56.4311 0.739024 56.4311 1.65066V3.96434H48.7506V1.65066C48.7506 0.739024 48.0349 0 47.1519 0H44.9238V11.8792C44.9238 12.975 45.1245 14.0018 45.5259 14.9595C45.9273 15.9264 46.4715 16.769 47.1583 17.4873C47.8541 18.2056 48.6659 18.7719 49.5936 19.1863C50.5303 19.6007 51.5294 19.8079 52.5909 19.8079C53.6524 19.8079 54.647 19.6007 55.5748 19.1863C56.5114 18.7719 57.3276 18.2056 58.0234 17.4873C58.7192 16.769 59.2678 15.9264 59.6693 14.9595C60.0707 14.0018 60.2714 12.975 60.2714 11.8792V0Z" fill="#2E6DF3"/>
<path d="M65.4045 19.5365C65.1031 19.8336 64.7415 19.9822 64.3196 19.9822C63.8977 19.9822 63.5361 19.8336 63.2347 19.5365C62.9334 19.2394 62.7827 18.8828 62.7827 18.4669C62.7827 18.0509 62.9334 17.6944 63.2347 17.3972C63.5361 17.1001 63.8977 16.9516 64.3196 16.9516C64.7415 16.9516 65.1031 17.1001 65.4045 17.3972C65.7059 17.6944 65.8565 18.0509 65.8565 18.4669C65.8565 18.8828 65.7059 19.2394 65.4045 19.5365Z" fill="#2E6DF3"/>
<path d="M73.9487 10.8369H76.2812V19.7504H73.9487V18.6986C73.2495 19.5662 72.2671 20 71.0014 20C69.796 20 68.7593 19.5484 67.8914 18.6451C67.0355 17.73 66.6076 16.6129 66.6076 15.2937C66.6076 13.9744 67.0355 12.8632 67.8914 11.96C68.7593 11.0449 69.796 10.5873 71.0014 10.5873C72.2671 10.5873 73.2495 11.0211 73.9487 11.8887V10.8369ZM69.6453 17.112C70.1154 17.5755 70.7121 17.8073 71.4353 17.8073C72.1586 17.8073 72.7553 17.5755 73.2254 17.112C73.7076 16.6366 73.9487 16.0305 73.9487 15.2937C73.9487 14.5568 73.7076 13.9566 73.2254 13.4931C72.7553 13.0177 72.1586 12.78 71.4353 12.78C70.7121 12.78 70.1154 13.0177 69.6453 13.4931C69.1752 13.9566 68.9401 14.5568 68.9401 15.2937C68.9401 16.0305 69.1752 16.6366 69.6453 17.112Z" fill="#2E6DF3"/>
<path d="M79.5535 9.76726C79.1677 9.76726 78.8302 9.63058 78.5409 9.35724C78.2637 9.072 78.1251 8.73923 78.1251 8.35892C78.1251 7.97861 78.2637 7.64584 78.5409 7.3606C78.8302 7.07537 79.1677 6.93275 79.5535 6.93275C79.9513 6.93275 80.2888 7.07537 80.566 7.3606C80.8553 7.64584 81 7.97861 81 8.35892C81 8.73923 80.8553 9.072 80.566 9.35724C80.2888 9.63058 79.9513 9.76726 79.5535 9.76726ZM78.3963 19.7504V10.8369H80.7288V19.7504H78.3963Z" fill="#2E6DF3"/>
</svg>
