<svg width="14" height="14" viewBox="0 0 14 14" fill="none" xmlns="http://www.w3.org/2000/svg">
<path d="M1.1665 1.75H4.6665C5.28534 1.75 5.87884 1.99583 6.31642 2.43342C6.75401 2.871 6.99984 3.46449 6.99984 4.08333V12.25C6.99984 11.7859 6.81546 11.3408 6.48727 11.0126C6.15909 10.6844 5.71397 10.5 5.24984 10.5H1.1665V1.75Z" stroke="#7D8187" stroke-linecap="round" stroke-linejoin="round"/>
<path d="M12.8333 1.75H9.33333C8.71449 1.75 8.121 1.99583 7.68342 2.43342C7.24583 2.871 7 3.46449 7 4.08333V12.25C7 11.7859 7.18437 11.3408 7.51256 11.0126C7.84075 10.6844 8.28587 10.5 8.75 10.5H12.8333V1.75Z" stroke="#7D8187" stroke-linecap="round" stroke-linejoin="round"/>
</svg>
