<svg width="12" height="12" viewBox="0 0 12 12" fill="none" xmlns="http://www.w3.org/2000/svg">
<path d="M10.5 6.40541C10.4212 7.25832 10.1011 8.07114 9.57717 8.74877C9.05325 9.4264 8.34718 9.9408 7.54158 10.2318C6.73597 10.5228 5.86416 10.5783 5.02814 10.3919C4.19213 10.2055 3.42649 9.78485 2.82082 9.17918C2.21515 8.57351 1.7945 7.80787 1.60809 6.97186C1.42168 6.13584 1.47722 5.26403 1.76821 4.45842C2.0592 3.65282 2.5736 2.94675 3.25123 2.42283C3.92886 1.89892 4.74168 1.57882 5.59459 1.5C5.09524 2.17557 4.85495 3.00792 4.91742 3.84568C4.9799 4.68344 5.34099 5.47095 5.93502 6.06498C6.52905 6.65901 7.31656 7.0201 8.15432 7.08258C8.99208 7.14505 9.82443 6.90476 10.5 6.40541V6.40541Z" stroke="#7D8187" stroke-linecap="round" stroke-linejoin="round"/>
</svg>
